<?xml version="1.0" encoding="utf-8"?>
<!-- Generator: Adobe Illustrator 19.0.0, SVG Export Plug-In . SVG Version: 6.00 Build 0)  -->
<svg version="1.1" id="Слой_2" xmlns="http://www.w3.org/2000/svg" xmlns:xlink="http://www.w3.org/1999/xlink" x="0px" y="0px"
	 viewBox="-199 51 100 100" style="enable-background:new -199 51 100 100;" xml:space="preserve">
<g>
	<circle cx="-186.7" cy="73" r="2.9"/>
	<circle cx="-178.8" cy="73" r="2.9"/>
	<circle cx="-170.9" cy="73" r="2.9"/>
	<path d="M-101.2,81.7C-101.2,81.7-101.3,81.7-101.2,81.7l0-12.7c0-3.4-2.8-6.1-6.1-6.1h-83.5c-3.4,0-6.1,2.8-6.1,6.1v71.5
		c0,3.4,2.8,6.2,6.2,6.2h83.4c1.7,0,3.3-0.7,4.4-1.9c1.1-1.2,1.8-2.7,1.7-4.4L-101.2,81.7C-101.3,81.7-101.2,81.7-101.2,81.7z
		 M-193.1,83.6h88.2v56.8c0,1.3-1,2.3-2.3,2.3h-83.5c-1.3,0-2.3-1-2.3-2.3V83.6z M-105,79.8h-88.2V69c0-1.3,1-2.3,2.3-2.3h83.5
		c1.3,0,2.3,1,2.3,2.3V79.8z"/>
	<path d="M-165.9,130.6c0.4,0,0.9-0.2,1.2-0.5l8.2-8.2c2.6,2.1,5.9,3.3,9.3,3.3c8.3,0,15-6.7,15-15c0-8.3-6.7-15-15-15
		c-8.3,0-15,6.7-15,15c0,3.4,1.2,6.7,3.3,9.3l-8.2,8.2c-0.7,0.7-0.7,1.7,0,2.4C-166.8,130.4-166.3,130.6-165.9,130.6z M-158.7,110.2
		c0-6.4,5.2-11.6,11.6-11.6c6.4,0,11.6,5.2,11.6,11.6c0,6.3-5.2,11.5-11.7,11.5C-153.5,121.7-158.7,116.5-158.7,110.2z"/>
</g>
</svg>
