<?xml version="1.0" encoding="iso-8859-1"?>
<!-- Generator: Adobe Illustrator 19.0.0, SVG Export Plug-In . SVG Version: 6.00 Build 0)  -->
<svg version="1.1" id="Capa_1" xmlns="http://www.w3.org/2000/svg" xmlns:xlink="http://www.w3.org/1999/xlink" x="0px" y="0px"
	 viewBox="0 0 512 512" style="enable-background:new 0 0 512 512;" xml:space="preserve">
<g>
	<g>
		<path d="M458.667,85.333H53.333C23.915,85.333,0,109.269,0,138.667v234.667c0,29.397,23.915,53.333,53.333,53.333h405.333
			c29.419,0,53.333-23.936,53.333-53.333V138.667C512,109.269,488.085,85.333,458.667,85.333z M490.667,373.333
			c0,17.643-14.357,32-32,32H53.333c-17.643,0-32-14.357-32-32V138.667c0-17.643,14.357-32,32-32h405.333c17.643,0,32,14.357,32,32
			V373.333z"/>
	</g>
</g>
<g>
	<g>
		<path d="M160,298.667H74.667c-5.888,0-10.667,4.779-10.667,10.667S68.779,320,74.667,320H160c5.888,0,10.667-4.779,10.667-10.667
			S165.888,298.667,160,298.667z"/>
	</g>
</g>
<g>
	<g>
		<path d="M224,341.333H74.667C68.779,341.333,64,346.112,64,352c0,5.888,4.779,10.667,10.667,10.667H224
			c5.888,0,10.667-4.779,10.667-10.667C234.667,346.112,229.888,341.333,224,341.333z"/>
	</g>
</g>
<g>
	<g>
		<path d="M236.16,132.864c-12.48-3.733-26.389,1.109-34.261,11.712c-6.016,8.064-7.851,18.112-5.035,27.584
			C211.541,221.525,257.792,256,309.333,256c5.888,0,10.667-4.779,10.667-10.667C320,193.792,285.525,147.541,236.16,132.864z
			 M217.301,166.08c-1.216-4.032,0.533-7.211,1.685-8.747c2.069-2.773,5.205-4.437,8.363-4.437c0.896,0,1.813,0.149,2.709,0.405
			c36.736,10.923,63.381,43.221,67.904,80.683C260.48,229.44,228.224,202.795,217.301,166.08z"/>
	</g>
</g>
<g>
	<g>
		<path d="M416.768,144.576c-7.893-10.581-21.781-15.445-34.261-11.712c-49.365,14.677-83.84,60.928-83.84,112.469
			c0,5.888,4.779,10.667,10.667,10.667c51.541,0,97.792-34.475,112.469-83.84C424.619,162.709,422.784,152.64,416.768,144.576z
			 M401.344,166.08c-10.901,36.736-43.179,63.381-80.661,67.904c4.523-37.483,31.189-69.76,67.904-80.683
			c0.917-0.256,1.835-0.405,2.731-0.405c3.157,0,6.293,1.664,8.341,4.437C400.811,158.869,402.56,162.048,401.344,166.08z"/>
	</g>
</g>
<g>
	<g>
		<path d="M309.333,85.333c-5.888,0-10.667,4.779-10.667,10.667v320c0,5.888,4.779,10.667,10.667,10.667S320,421.888,320,416V96
			C320,90.112,315.221,85.333,309.333,85.333z"/>
	</g>
</g>
<g>
	<g>
		<path d="M316.864,237.803c-4.16-4.16-10.923-4.16-15.083,0l-64,64c-4.16,4.16-4.16,10.923,0,15.083
			c2.091,2.069,4.821,3.115,7.552,3.115c2.731,0,5.461-1.045,7.531-3.115l64-64C321.024,248.725,321.024,241.963,316.864,237.803z"
			/>
	</g>
</g>
<g>
	<g>
		<path d="M380.864,301.803l-64-64c-4.16-4.16-10.923-4.16-15.083,0c-4.16,4.16-4.16,10.923,0,15.083l64,64
			c2.091,2.069,4.821,3.115,7.552,3.115c2.731,0,5.461-1.045,7.531-3.115C385.024,312.725,385.024,305.963,380.864,301.803z"/>
	</g>
</g>
<g>
	<g>
		<path d="M501.333,234.667H10.667C4.779,234.667,0,239.445,0,245.333S4.779,256,10.667,256h490.667
			c5.888,0,10.667-4.779,10.667-10.667S507.221,234.667,501.333,234.667z"/>
	</g>
</g>
<g>
</g>
<g>
</g>
<g>
</g>
<g>
</g>
<g>
</g>
<g>
</g>
<g>
</g>
<g>
</g>
<g>
</g>
<g>
</g>
<g>
</g>
<g>
</g>
<g>
</g>
<g>
</g>
<g>
</g>
</svg>
