<?xml version="1.0" encoding="utf-8"?>
<!-- Generator: Adobe Illustrator 19.0.0, SVG Export Plug-In . SVG Version: 6.00 Build 0)  -->
<svg version="1.1" id="Слой_1" xmlns="http://www.w3.org/2000/svg" xmlns:xlink="http://www.w3.org/1999/xlink" x="0px" y="0px"
	 viewBox="-2 -147 494 494" style="enable-background:new -2 -147 494 494;" xml:space="preserve">
<g>
	<path d="M472.9,197.5h-59.3l-2-269.8c0-26.7-22-48.4-49-48.4H55.6C27.5-120.5,4.8-97.5,4.8-69.5v68.3c0,4.7,3.7,8.7,8.1,8.7h77.4
		v235.9c-0.2,36.2,29.1,65.8,65.2,66h0.2c0.7,0,1.4-0.1,2.1-0.2c0.5-0.1,1.1-0.2,1.7-0.2v0.4h259.8v-0.5c34-1.9,61.5-31.1,61.5-65.5
		v-37.2C481,201.4,477.3,197.5,472.9,197.5z M93.3-104h269.4c17.8,0,32.3,14.3,32.3,31.9l2,269.7l-184,0c-4.6,0.2-8.3,4-8.3,8.6
		v37.1c0.1,27.1-21.9,49.3-49,49.5h-0.2c-26.8,0-48.6-22.1-48.6-49.4V-69.3C107-81.7,102.3-93.7,93.3-104z M200.7,291.2
		c0.5-0.4,1.1-0.9,1.6-1.4c12.4-12.5,19.2-29,19.2-46.6v-29.1h242.9v29.2c0,27.2-21.9,49.4-48.9,49.4H199
		C199.6,292.1,200.1,291.7,200.7,291.2z M90.4-69.3v60.1H21.5v-60.3c-0.1-18.9,15.2-34.4,34.1-34.6h0.2
		C74.5-104,90.4-88.1,90.4-69.3z"/>
	<path d="M211.5,69.9l39.7,27c1.4,1,3.1,1.5,4.7,1.5c1.6,0,3.2-0.5,4.6-1.5l39.6-27.1c13.8-9.4,24.2-29.2,24.2-46.1l0-54.9
		c0.1-3.1-1.7-6-4.5-7.5l-60.3-29.6c-2.3-1.1-5-1.1-7.3,0l-60.4,29.7c-2.8,1.5-4.6,4.4-4.5,7.5v54.9
		C187.4,40.7,197.8,60.5,211.5,69.9z M204.1,23.7V-26l51.8-25.6L307.7-26v49.7c0,11.5-7.6,26-16.8,32.4L256,79.9l-34.9-23.9
		C211.7,49.7,204.1,35.2,204.1,23.7z"/>
	<path d="M257.6,35.9c1.6,1.6,3.7,2.5,5.9,2.5c2.2,0,4.3-0.9,5.9-2.5l15.4-15.8c1.6-1.6,2.4-3.7,2.4-5.9c0-2.2-0.9-4.3-2.5-5.9
		c-1.6-1.5-3.7-2.4-5.9-2.4c0,0,0,0-0.1,0c-2.2,0-4.3,0.9-5.8,2.5l-9.6,9.7L238.7-6.5c-1.6-1.6-3.6-2.4-5.9-2.4
		c-2.2,0-4.3,0.9-5.9,2.4c-1.6,1.6-2.4,3.6-2.4,5.9s0.9,4.3,2.4,5.9L257.6,35.9z"/>
	<path d="M160.2,134.4h184.6c4.6,0,8.3-3.7,8.3-8.3c0-4.6-3.7-8.3-8.3-8.3H160.2c-4.6,0-8.3,3.7-8.3,8.3
		C151.9,130.7,155.7,134.4,160.2,134.4z"/>
	<path d="M160.2,170h184.6c4.6,0,8.3-3.7,8.3-8.3c0-4.6-3.7-8.3-8.3-8.3H160.2c-4.6,0-8.3,3.7-8.3,8.3
		C151.9,166.2,155.7,170,160.2,170z"/>
</g>
</svg>
