<?xml version="1.0" encoding="utf-8"?>
<!-- Generator: Adobe Illustrator 19.0.0, SVG Export Plug-In . SVG Version: 6.00 Build 0)  -->
<svg version="1.1" id="Слой_1" xmlns="http://www.w3.org/2000/svg" xmlns:xlink="http://www.w3.org/1999/xlink" x="0px" y="0px"
	 viewBox="0 0 100 100" style="enable-background:new 0 0 100 100;" xml:space="preserve">
<style type="text/css">
	.st0{display:none;}
</style>
<g id="Слой_1_1_" class="st0">
</g>
<g>
	<path d="M16.2,44.2L55.8,4.3l21.1-0.1l19.2,19.1l0.1,21.1l-5,5.1c-0.9,0.9-0.9,2.2,0,3.1s2.2,0.9,3.1,0l6.3-6.4l-0.1-24.7L78.7-0.2
		L54-0.1L11.7,42.4c-0.1,0.1-0.1,0.1-0.2,0.2c-0.1,0.1-0.1,0.1-0.2,0.2L-0.8,55l46.5,46.3L57.9,89c0.1,0,0.1-0.1,0.2-0.1l0.2-0.1
		c0.4-0.4,0.7-1,0.7-1.6s-0.2-1.1-0.7-1.6L16.2,44.2z M13.1,47.3l40.4,39.9l-7.8,7.9L5.4,55L13.1,47.3z"/>
	<path d="M68.2,23.8c0,4.6,3.8,8.4,8.4,8.4s8.4-3.8,8.4-8.4s-3.8-8.4-8.4-8.4S68.2,19.2,68.2,23.8z M72.6,23.8c0-2.2,1.8-4,4-4
		s4,1.8,4,4s-1.8,4-4,4S72.6,26,72.6,23.8z"/>
	<path d="M82.2,57.3l-6.8-13.8l-6.8,13.8l-15.1,2.2l11,10.6L62,85.2l13.5-7.1l13.6,7.1l-2.8-15.1l11-10.6L82.2,57.3z M75.5,73.2
		l-7.7,4l1.5-8.5L63,62.6l8.6-1.3l3.8-7.8l3.8,7.8l8.6,1.3l-6.2,6.1l1.5,8.5L75.5,73.2z"/>
</g>
</svg>
