<?xml version="1.0" encoding="utf-8"?>
<!-- Generator: Adobe Illustrator 19.0.0, SVG Export Plug-In . SVG Version: 6.00 Build 0)  -->
<svg version="1.1" id="Слой_1" xmlns="http://www.w3.org/2000/svg" xmlns:xlink="http://www.w3.org/1999/xlink" x="0px" y="0px"
	 viewBox="0 0 100 100" style="enable-background:new 0 0 100 100;" xml:space="preserve">
<style type="text/css">
	.st0{fill:#0C0E0F;}
	.st1{fill:#0D0F0F;}
</style>
<g id="Слой_2">
	<g id="XMLID_1_">
		<g id="XMLID_29_">
			<g id="XMLID_37_">
				<path class="st0" d="M91.4,92.3h-6.1c-0.6,0-1.1-0.5-1.1-1.1s0.5-1.1,1.1-1.1h3.9v-3.9c0-0.6,0.5-1.1,1.1-1.1s1.1,0.5,1.1,1.1
					V92.3z"/>
			</g>
			<g id="XMLID_36_">
				<path class="st0" d="M72.4,92.3h-8.6c-0.6,0-1.1-0.5-1.1-1.1s0.5-1.1,1.1-1.1h8.6c0.6,0,1.1,0.5,1.1,1.1S73,92.3,72.4,92.3z
					 M50.8,92.3h-8.6c-0.6,0-1.1-0.5-1.1-1.1s0.5-1.1,1.1-1.1h8.6c0.6,0,1.1,0.5,1.1,1.1S51.4,92.3,50.8,92.3z M29.2,92.3h-8.6
					c-0.6,0-1.1-0.5-1.1-1.1s0.5-1.1,1.1-1.1h8.6c0.6,0,1.1,0.5,1.1,1.1S29.9,92.3,29.2,92.3z"/>
			</g>
			<g id="XMLID_35_">
				<path class="st0" d="M7.7,92.3H1.6v-6.1c0-0.6,0.5-1.1,1.1-1.1s1.1,0.5,1.1,1.1v3.9h3.9c0.6,0,1.1,0.5,1.1,1.1
					S8.3,92.3,7.7,92.3z"/>
			</g>
			<g id="XMLID_34_">
				<path class="st0" d="M2.7,71.7c-0.6,0-1.1-0.5-1.1-1.1V60.2c0-0.6,0.5-1.1,1.1-1.1s1.1,0.5,1.1,1.1v10.4
					C3.8,71.2,3.3,71.7,2.7,71.7z M2.7,45.8c-0.6,0-1.1-0.5-1.1-1.1V34.3c0-0.6,0.5-1.1,1.1-1.1s1.1,0.5,1.1,1.1v10.4
					C3.8,45.3,3.3,45.8,2.7,45.8z"/>
			</g>
			<g id="XMLID_33_">
				<path class="st0" d="M2.7,19.9c-0.6,0-1.1-0.5-1.1-1.1v-6.1h6.1c0.6,0,1.1,0.5,1.1,1.1s-0.5,1.1-1.1,1.1H3.8v3.9
					C3.8,19.4,3.3,19.9,2.7,19.9z"/>
			</g>
			<g id="XMLID_32_">
				<path class="st0" d="M72.4,14.9h-8.6c-0.6,0-1.1-0.5-1.1-1.1s0.5-1.1,1.1-1.1h8.6c0.6,0,1.1,0.5,1.1,1.1S73,14.9,72.4,14.9z
					 M50.8,14.9h-8.6c-0.6,0-1.1-0.5-1.1-1.1s0.5-1.1,1.1-1.1h8.6c0.6,0,1.1,0.5,1.1,1.1S51.4,14.9,50.8,14.9z M29.2,14.9h-8.6
					c-0.6,0-1.1-0.5-1.1-1.1s0.5-1.1,1.1-1.1h8.6c0.6,0,1.1,0.5,1.1,1.1S29.8,14.9,29.2,14.9z"/>
			</g>
			<g id="XMLID_31_">
				<path class="st0" d="M90.3,19.9c-0.6,0-1.1-0.5-1.1-1.1v-3.9h-3.9c-0.6,0-1.1-0.5-1.1-1.1s0.5-1.1,1.1-1.1h6.1v6.1
					C91.4,19.4,90.9,19.9,90.3,19.9z"/>
			</g>
			<g id="XMLID_30_">
				<path class="st0" d="M90.3,71.7c-0.6,0-1.1-0.5-1.1-1.1V60.2c0-0.6,0.5-1.1,1.1-1.1s1.1,0.5,1.1,1.1v10.4
					C91.4,71.2,90.9,71.7,90.3,71.7z M90.3,42.8c-0.6,0-1.1-0.5-1.1-1.1v-7.4c0-0.6,0.5-1.1,1.1-1.1s1.1,0.5,1.1,1.1v7.4
					C91.4,42.3,90.9,42.8,90.3,42.8z"/>
			</g>
		</g>
	</g>
	<g id="XMLID_10_">
		<g id="XMLID_11_">
			<g id="XMLID_8_">
				<path class="st1" d="M85.3,38.7c-1.1,0.8-1.4,2.3-0.6,3.4l4,5.7l-1.4,2.1c-1.3-0.8-3-0.4-3.9,0.9c-0.9,1.3-0.6,3.2,0.7,4.2
					c1.3,0.9,3.2,0.6,4.2-0.7c0.6-0.9,0.7-2.1,0.2-3l1.8-2.5l1.8,2.5c-0.5,0.9-0.4,2.1,0.2,3c0.9,1.3,2.8,1.7,4.2,0.7
					c1.3-0.9,1.7-2.8,0.7-4.2c-0.9-1.3-2.6-1.6-3.9-0.9l-1.4-2.1l4-5.7c0.8-1.1,0.5-2.6-0.6-3.4l-4.8,6.9L85.3,38.7z M87.3,52.4
					c0,0.9-0.7,1.5-1.5,1.5s-1.5-0.7-1.5-1.5c0-0.9,0.7-1.5,1.5-1.5S87.3,51.5,87.3,52.4z M96.1,52.4c0,0.9-0.7,1.5-1.5,1.5
					c-0.9,0-1.5-0.7-1.5-1.5c0-0.9,0.7-1.5,1.5-1.5C95.4,50.8,96.1,51.5,96.1,52.4z"/>
			</g>
		</g>
	</g>
	<g id="XMLID_9_">
		<path class="st1" d="M29.8,74.7c-0.3,0-0.7-0.1-0.9-0.4c-0.5-0.5-0.5-1.3,0-1.8l38.8-38.8c0.5-0.5,1.3-0.5,1.8,0
			c0.5,0.5,0.5,1.3,0,1.8L30.7,74.3C30.5,74.6,30.1,74.7,29.8,74.7z"/>
	</g>
	<g id="XMLID_12_">
		<path class="st1" d="M37.4,51c-4.9,0-8.9-4-8.9-8.9s4-8.9,8.9-8.9s8.9,4,8.9,8.9S42.3,51,37.4,51z M37.4,35.8
			c-3.5,0-6.3,2.8-6.3,6.3s2.8,6.3,6.3,6.3s6.3-2.8,6.3-6.3S40.9,35.8,37.4,35.8z"/>
	</g>
	<g id="XMLID_13_">
		<path class="st1" d="M60.1,75.1c-4.9,0-8.9-4-8.9-8.9c0-4.9,4-8.9,8.9-8.9c4.9,0,8.9,4,8.9,8.9C69,71.1,65,75.1,60.1,75.1z
			 M60.1,59.9c-3.5,0-6.3,2.8-6.3,6.3c0,3.5,2.8,6.3,6.3,6.3c3.5,0,6.3-2.8,6.3-6.3C66.4,62.7,63.6,59.9,60.1,59.9z"/>
	</g>
</g>
</svg>
