<?xml version="1.0" encoding="utf-8"?>
<!-- Generator: Adobe Illustrator 19.0.0, SVG Export Plug-In . SVG Version: 6.00 Build 0)  -->
<svg version="1.1" id="Слой_2" xmlns="http://www.w3.org/2000/svg" xmlns:xlink="http://www.w3.org/1999/xlink" x="0px" y="0px"
	 viewBox="0 0 100 100" style="enable-background:new 0 0 100 100;" xml:space="preserve">
<g>
	<path d="M88.7,8.4H10.6c-5.3,0-9.5,4.3-9.5,9.5v75.6h86.5c1.2,0,2.1-1,2.1-2.1s-1-2.1-2.1-2.1H5.4V17.9c0-2.9,2.4-5.3,5.3-5.3h78.1
		c2.9,0,5.3,2.4,5.3,5.3v7.6H10.6c-1.2,0-2.1,1-2.1,2.1c0,1.2,1,2.1,2.1,2.1H94v60.9c0,1.2,1,2.1,2.1,2.1c1.2,0,2.1-1,2.1-2.1V17.9
		C98.3,12.7,94,8.4,88.7,8.4z"/>
	<path d="M11.8,22c1.7,0,3.1-1.4,3.1-3.1c0-1.7-1.4-3.1-3.1-3.1c-1.7,0-3.1,1.4-3.1,3.1C8.7,20.6,10.1,22,11.8,22z"/>
	<path d="M23.9,18.9c0-1.7-1.4-3.1-3.1-3.1c-1.7,0-3.1,1.4-3.1,3.1c0,1.7,1.4,3.1,3.1,3.1C22.5,22,23.9,20.6,23.9,18.9z"/>
	<path d="M32.8,18.9c0-1.7-1.4-3.1-3.1-3.1s-3.1,1.4-3.1,3.1c0,1.7,1.4,3.1,3.1,3.1S32.8,20.6,32.8,18.9z"/>
	<path d="M46.2,41.1c-8.5,0-15.4,6.9-15.4,15.4s6.8,15.4,15.3,15.4c3.4,0,6.8-1.1,9.4-3.2l8.1,8.1c0.4,0.4,0.9,0.6,1.4,0.6
		c0.5,0,1-0.2,1.3-0.6c0.4-0.4,0.7-0.8,0.7-1.4c0-0.5-0.2-1-0.6-1.4l-8.1-8.1c2.1-2.6,3.2-6,3.2-9.4C61.6,48,54.7,41.1,46.2,41.1z
		 M46.1,67.8c-6.3,0-11.5-5.1-11.5-11.5s5.1-11.5,11.5-11.5S57.6,50,57.6,56.3S52.5,67.8,46.1,67.8z"/>
</g>
</svg>
