<?xml version="1.0" encoding="utf-8"?>
<!-- Generator: Adobe Illustrator 19.0.0, SVG Export Plug-In . SVG Version: 6.00 Build 0)  -->
<svg version="1.1" id="Слой_1" xmlns="http://www.w3.org/2000/svg" xmlns:xlink="http://www.w3.org/1999/xlink" x="0px" y="0px"
	 viewBox="-199 51 100 100" style="enable-background:new -199 51 100 100;" xml:space="preserve">
<g>
	<path d="M-198.6,50.7v99.2h100V50.7H-198.6z M-194.4,74.9h91.6v70.8h-91.6V74.9z M-102.8,70.7h-91.6V54.9h91.6V70.7z"/>
	<path d="M-129.8,81.3h-41.9v14.3h42L-129.8,81.3z M-134,85.4v6h-33.5v-6H-134z"/>
	<path d="M-129.8,99.1h-41.9v14.4h42L-129.8,99.1z M-134,103.3v6h-33.5v-6H-134z"/>
	<path d="M-171.7,138.5h62.1v-21.6h-62.1V138.5z M-113.8,121.1v13.2h-53.7v-13.2H-113.8z"/>
	<path d="M-184.5,68c2.8,0,5-2.2,5-5c0-2.8-2.2-5-5-5c-2.8,0-5,2.2-5,5C-189.5,65.8-187.3,68-184.5,68z M-186.5,63c0-1.1,0.9-2,2-2
		c1.1,0,2,0.9,2,2c0,1.1-0.9,2-2,2C-185.6,65-186.5,64.1-186.5,63z"/>
	<path d="M-172,68c2.8,0,5-2.2,5-5c0-2.8-2.2-5-5-5c-2.8,0-5,2.2-5,5C-177,65.8-174.8,68-172,68z M-174,63c0-1.1,0.9-2,2-2
		c1.1,0,2,0.9,2,2c0,1.1-0.9,2-2,2C-173.1,65-174,64.1-174,63z"/>
	<path d="M-159.3,68c2.8,0,5-2.2,5-5c0-2.8-2.2-5-5-5c-2.8,0-5,2.2-5,5C-164.3,65.8-162,68-159.3,68z M-161.2,63c0-1.1,0.9-2,2-2
		c1.1,0,2,0.9,2,2c0,1.1-0.9,2-2,2C-160.3,65-161.2,64.1-161.2,63z"/>
	<rect x="-187.8" y="81.3" width="12.2" height="4.2"/>
	<rect x="-187.8" y="99.1" width="12.2" height="4.2"/>
	<rect x="-187.8" y="116.9" width="12.2" height="4.2"/>
</g>
</svg>
