<?xml version="1.0" encoding="utf-8"?>
<!-- Generator: Adobe Illustrator 19.0.0, SVG Export Plug-In . SVG Version: 6.00 Build 0)  -->
<svg version="1.1" id="Layer_1" xmlns="http://www.w3.org/2000/svg" xmlns:xlink="http://www.w3.org/1999/xlink" x="0px" y="0px"
	 viewBox="-67 86 100 30" style="enable-background:new -67 86 100 30;" xml:space="preserve">
<style type="text/css">
	.st0{fill:#211615;}
</style>
<path class="st0" d="M-59.7,98.4h-5.2c-0.8,0-1.4-0.6-1.4-1.4v-2.1c0-0.8,0.6-1.4,1.4-1.4h5.2c0.8,0,1.4,0.6,1.4,1.4V97
	C-58.3,97.8-58.9,98.4-59.7,98.4z"/>
<path class="st0" d="M-8.5,98.4l-4.2-0.5c-2.9-0.3-5.8-0.3-8.6,0l-4.6,0.5c-0.8,0-1.4-0.6-1.4-1.4v-2.1c0-0.8,0.6-1.4,1.4-1.4
	l4.6-0.5c2.9-0.3,5.8-0.3,8.6,0l4.2,0.5c0.8,0,1.4,0.6,1.4,1.4V97C-7.1,97.8-7.7,98.4-8.5,98.4z"/>
<path class="st0" d="M30.6,98.4h-5.2c-0.8,0-1.4-0.6-1.4-1.4v-2.1c0-0.8,0.6-1.4,1.4-1.4h5.2c0.8,0,1.4,0.6,1.4,1.4V97
	C32,97.8,31.4,98.4,30.6,98.4z"/>
<g>
	<path class="st0" d="M-25.2,93.3c-0.7-1-1.7-1.8-3.4-2.2c-0.1,0-6.7-1.9-14.2-2c-7.7-0.1-14.8,0.6-16.6,1.8
		c-0.7,0.3-1.4,0.9-1.8,1.8c-0.2,0.5-0.5,1.6-0.6,2.1C-62,95.8-62,99-62,99c0,0.7,0.1,1.5,0.2,2.4c0.8,7.3,2.1,8.5,5.3,9.8
		c1.9,0.8,8.1,1.8,14.2,1.8c4,0,7.9-0.4,10.5-1.6c0.3-0.1,4.2-1.8,6.2-8.6c0.3-0.9,0.5-1.7,0.7-2.5c0.2-0.7,0.4-2.8,0.4-3.7
		C-24.4,95.2-24.7,94-25.2,93.3z M-26.2,102.5c-2.1,6.6-5.7,8.1-5.9,8.1c-6.3,3-21.1,1.1-24.1-0.1s-4.1-2.2-4.9-9.2
		c-0.8-7.4,0.6-9,2-9.8c1.6-1,7.8-1.7,14.8-1.7c0.5,0,1.1,0,1.6,0c7.3,0.1,13.9,1.9,14,2c1.5,0.4,2.5,1.1,3.1,2.1
		C-24.7,95.5-24.9,98.3-26.2,102.5z"/>
	<path class="st0" d="M28,95.6c-0.1-0.7-0.5-2.2-0.8-2.9c-0.4-0.9-1.1-1.4-1.8-1.8c-1.7-1.1-7.8-1.8-15.1-1.8c-0.6,0-1.1,0-1.7,0
		c-7.5,0.1-14.1,2-14.2,2c-1.6,0.5-2.8,1.2-3.4,2.2c-0.5,0.9-0.8,2.5-0.7,3.5c0.2,2.2,0.3,2.5,0.5,3.4c0.2,0.9,0.4,1.7,0.7,2.6
		c2.1,6.7,5.9,8.4,6.2,8.6c2.6,1.2,6.5,1.7,10.6,1.7c6.1,0,12.3-1,14.2-1.8c3.2-1.3,4.5-2.5,5.3-9.8c0.1-0.9,0.2-1.6,0.2-2.4
		C28,99.1,28.1,96.5,28,95.6z M27.1,101.3c-0.8,7-1.8,8-4.9,9.2c-3.1,1.3-17.8,3.1-24.2,0.1c0,0-3.8-1.5-5.8-8.1
		c-1.3-4.3-1.5-7-0.6-8.6c0.5-1,1.5-1.7,3-2.1c0.1,0,6.7-1.9,14-2c0.5,0,1.1,0,1.6,0c7.1,0,13.1,0.7,14.7,1.7
		C26.5,92.3,27.9,93.9,27.1,101.3z"/>
</g>
</svg>
