<?xml version="1.0" encoding="utf-8"?>
<!-- Generator: Adobe Illustrator 19.0.0, SVG Export Plug-In . SVG Version: 6.00 Build 0)  -->
<svg version="1.1" id="Layer_1" xmlns="http://www.w3.org/2000/svg" xmlns:xlink="http://www.w3.org/1999/xlink" x="0px" y="0px"
	 viewBox="-199 85.7 100 30.3" style="enable-background:new -199 85.7 100 30.3;" xml:space="preserve">
<style type="text/css">
	.st0{fill:#201600;}
	.st1{opacity:0.35;}
	.st2{fill:#FFFFFF;}
</style>
<path class="st0" d="M-147.3,96.2c1.9,0.2,2.6,2,2.6,2s0,0,1.4,4.1c4.2,11.9,9.1,13,21.6,12.6c5-0.1,9.9-0.9,13.8-2.4
	s4.6-5.5,4.6-5.5s1.9-7.4,2-8s1.8-2.6,1.8-2.6v-7.2c0,0-13.3-1.5-22.9-1.9c-12.1-0.3-19.9,3.4-24.7,3.9c-2.8,0.1-4,0.2-7.8-0.9
	c-3.4-0.9-11.1-3.3-20.6-3c-9.7,0.4-23,1.9-23,1.9v7.3c0,0,1.7,2,1.8,2.6s2,8,2,8s0.7,4,4.6,5.5c3.9,1.5,8.8,2.2,13.8,2.4
	c5,0.1,11.4,0.2,14.9-2.2s5.3-6.3,6.7-10.4s1.4-4.1,1.4-4.1s0.6-1.8,2.6-2C-149.2,96.1-148.8,96.1-147.3,96.2z M-104.8,101.5
	c-0.8,7.2-2,8.4-5.4,9.8s-18,3.1-24.5,0.1c0,0-4.1-1.5-6.3-8.6s-1.4-10.4,3-11.7c0,0,6.6-1.9,14-2c7.4-0.1,14.6,0.6,16.6,1.8
	C-105.2,92.2-103.9,94.4-104.8,101.5z M-190.8,90.9c2-1.2,9.2-1.9,16.6-1.8c7.4,0.1,14,2,14,2c4.5,1.3,5.2,4.6,3,11.7
	s-6.3,8.6-6.3,8.6c-6.4,3-21.1,1.3-24.5-0.1s-4.6-2.7-5.4-9.8C-194.1,94.4-192.8,92.2-190.8,90.9z"/>
<g class="st1">
	<path class="st0" d="M-189.2,102.2c0,0,0.8-6,9.1-9.8c0,0-5.1,3.8-6.3,7.7C-187.6,104-189.2,102.2-189.2,102.2z"/>
	<path class="st0" d="M-162,104.9c0,0-1.2-11.1-10.9-13.2c0,0,6.7,2.7,8.3,10.3L-162,104.9z"/>
	<ellipse class="st0" cx="-175.6" cy="100.7" rx="5.8" ry="5.8"/>
	<ellipse class="st0" cx="-175.6" cy="100.4" rx="5.3" ry="5.1"/>
	<ellipse class="st0" cx="-175.6" cy="100.2" rx="2.8" ry="2.8"/>
	<path class="st2" d="M-176.1,97.1c-0.5,0.8-0.1,2.1,1,2.8c1.1,0.8,2.4,0.7,3,0c0.5-0.8,0.1-2.1-1-2.8
		C-174.2,96.3-175.5,96.3-176.1,97.1z"/>
	<path class="st2" d="M-178.8,101.6c-0.2,0.4,0,0.9,0.5,1.3c0.5,0.3,1.1,0.3,1.4,0c0.2-0.4,0-0.9-0.5-1.3
		C-177.9,101.2-178.5,101.3-178.8,101.6z"/>
	<path class="st0" d="M-167.4,106c1.5-0.5,2.8-1,3.7-1c1.6,0,2.3-0.1,1.1-1.8c-0.8-1-1.9-2.4-3.2-3.7
		C-164.7,101.3-163.9,104.2-167.4,106z"/>
	<path class="st0" d="M-189.2,102.2c-0.1,0.5,2.7,2.7,5.5,3.6c-1.4-0.5-3.2-6-1.9-7.2C-187.7,100.2-189.1,101.8-189.2,102.2z"/>
	<path class="st0" d="M-162,104.3c-1-1.8-5.4-6.5-8.2-7.4s-3.3-1.5-6.7-1.1c-3.4,0.3-7.4,2.4-12.2,6.4c0,0,2-3.5,6.1-6
		c4.2-2.4,5.8-2,8.2-2C-169.6,94.1-164.1,98.5-162,104.3z"/>
</g>
<g>
	<path class="st0" d="M-109,102.2c0,0-0.8-6-9.1-9.8c0,0,5.1,3.8,6.3,7.7C-110.6,104-109,102.2-109,102.2z"/>
	<path class="st0" d="M-136.2,104.9c0,0,1.2-11.1,10.9-13.2c0,0-6.7,2.7-8.3,10.3L-136.2,104.9z"/>
	<ellipse class="st0" cx="-122.5" cy="100.7" rx="5.8" ry="5.8"/>
	<ellipse class="st0" cx="-122.5" cy="100.4" rx="5.3" ry="5.1"/>
	<ellipse class="st0" cx="-122.5" cy="100.2" rx="2.8" ry="2.8"/>
	<path class="st2" d="M-122.1,97.1c0.5,0.8,0.1,2.1-1,2.8c-1.1,0.8-2.4,0.7-3,0c-0.5-0.8-0.1-2.1,1-2.8
		C-124,96.3-122.7,96.3-122.1,97.1z"/>
	<path class="st2" d="M-119.4,101.6c0.2,0.4,0,0.9-0.5,1.3c-0.5,0.3-1.1,0.3-1.4,0c-0.2-0.4,0-0.9,0.5-1.3
		C-120.2,101.2-119.6,101.3-119.4,101.6z"/>
	<path class="st0" d="M-130.8,106c-1.5-0.5-2.8-1-3.7-1c-1.6,0-2.3-0.1-1.1-1.8c0.8-1,1.9-2.4,3.2-3.7
		C-133.5,101.3-134.3,104.2-130.8,106z"/>
	<path class="st0" d="M-109,102.2c0.1,0.5-2.7,2.7-5.5,3.6c1.4-0.5,3.2-6,1.9-7.2C-110.5,100.2-109.1,101.8-109,102.2z"/>
	<path class="st0" d="M-136.1,104.3c1-1.8,5.4-6.5,8.2-7.4s3.3-1.5,6.7-1.1c3.4,0.3,7.4,2.4,12.2,6.4c0,0-2-3.5-6.1-6
		c-4.2-2.4-5.8-2-8.2-2C-128.6,94.1-134.1,98.5-136.1,104.3z"/>
</g>
</svg>
