<?xml version="1.0" encoding="utf-8"?>
<!-- Generator: Adobe Illustrator 19.0.0, SVG Export Plug-In . SVG Version: 6.00 Build 0)  -->
<svg version="1.1" id="Слой_2" xmlns="http://www.w3.org/2000/svg" xmlns:xlink="http://www.w3.org/1999/xlink" x="0px" y="0px"
	 viewBox="-199 51 100 100" style="enable-background:new -199 51 100 100;" xml:space="preserve">
<style type="text/css">
	.st0{fill:#201600;}
</style>
<g>
	<path class="st0" d="M-143.9,103.1c-1.1,0-2.2,0-3.2,0.1V63.8c0,0,0-0.1,0-0.1c-0.2-7-10.6-12.4-23.8-12.4
		c-13.6,0-23.9,5.4-23.9,12.4V130c0,7,10.5,12.6,23.9,12.6c1.5,0,3-0.1,4.4-0.2c3.1,5,11.9,8.6,22.7,8.6c9.1,0,17.2-2.5,21.2-6.6
		c1.8-1.8,2.7-3.9,2.7-6v-22.7C-120,108.7-130.5,103.1-143.9,103.1z M-171,55.1c10.8,0,20,4,20,8.6c0,4.6-9.3,8.7-20,8.7
		s-20-4-20-8.7C-191,59.1-181.8,55.1-171,55.1z M-191,70.8c4.2,3.4,11.5,5.6,20,5.6c8.5,0,15.8-2.1,20-5.4V76c0,4.6-9.3,8.6-20,8.6
		s-20-4-20-8.6V70.8z M-191,82.9c4.2,3.4,11.5,5.5,20,5.5c8.4,0,15.7-2.2,20-5.5v4.9c0,4.6-9.3,8.7-20,8.7s-20-4-20-8.7V82.9z
		 M-191,115.9c4.2,3.4,11.5,5.5,20,5.5c1.1,0,2.2,0,3.3-0.1v6.7c-1.1,0.1-2.1,0.1-3.3,0.1c-10.6,0-20-4-20-8.6V115.9z M-171,138.8
		c-10.6,0-20-4-20-8.7v-3.6c4.2,3.4,11.5,5.6,20,5.6c1.2,0,2.3,0,3.3-0.1v6.5c0,0.1,0,0.1,0,0.2C-168.8,138.7-169.9,138.8-171,138.8
		z M-167.8,115.7v1.8c-1.1,0.1-2.1,0.1-3.3,0.1c-10.6,0-20-4-20-8.6v-3.6c4.2,3.4,11.5,5.6,20,5.6c1.8,0,3.5-0.1,5.2-0.3
		C-167.1,112.2-167.8,113.9-167.8,115.7z M-171,107c-10.6,0-20-4-20-8.6v-3.6c4.2,3.4,11.5,5.6,20,5.6c8.4,0,15.7-2.2,20-5.6v3.6
		C-151,103-160.4,107-171,107z M-124,138.4c0,4.7-9.1,8.6-20,8.6c-10.6,0-19.9-4-19.9-8.6v-3.6c4.2,3.4,11.5,5.6,19.9,5.6
		c8.2,0,15.6-2.1,20-5.5V138.4z M-124,127.8c0,4.7-9.1,8.6-20,8.6c-10.6,0-19.9-4-19.9-8.6v-5.1c4.2,3.4,11.5,5.6,19.9,5.6
		c8.5,0,15.8-2.1,20-5.5V127.8z M-143.9,124.3c-10.8,0-19.9-3.9-19.9-8.5c0-4.7,9.1-8.6,19.9-8.6c10.8,0,20,3.9,20,8.5
		C-124,120.4-133.1,124.3-143.9,124.3z"/>
	<path class="st0" d="M-102.6,81.9c-0.5-0.5-1.1-0.8-1.8-0.9c-0.7,0-1.3,0.2-1.8,0.7l-12.6,12.6l-12.6-12.5c-1-1-2.6-1-3.7,0
		c-0.5,0.4-0.8,1-0.8,1.7c0,0.7,0.3,1.4,0.8,1.9l14.5,14.3c0.5,0.5,1.2,0.7,1.9,0.7c0.7,0,1.4-0.3,1.9-0.7l14.4-14.3
		C-101.7,84.5-101.7,82.8-102.6,81.9z"/>
	<path class="st0" d="M-120.8,85.3c0.5,0.5,1.1,0.7,1.9,0.7c0.7,0,1.4-0.3,1.9-0.7l14.4-14.3c1-1,1-2.6,0-3.6c-1-1-2.6-1-3.7,0
		L-119,79.8l-12.6-12.5c-1-1-2.6-1-3.7,0c-0.5,0.4-0.8,1-0.8,1.7c0,0.7,0.3,1.4,0.8,1.9L-120.8,85.3z"/>
</g>
</svg>
