<?xml version="1.0" encoding="utf-8"?>
<!-- Generator: Adobe Illustrator 19.0.0, SVG Export Plug-In . SVG Version: 6.00 Build 0)  -->
<svg version="1.1" id="Layer_1" xmlns="http://www.w3.org/2000/svg" xmlns:xlink="http://www.w3.org/1999/xlink" x="0px" y="0px"
	 viewBox="-199 85.7 100 30.3" style="enable-background:new -199 85.7 100 30.3;" xml:space="preserve">
<style type="text/css">
	.st0{fill:#201600;}
	.st1{opacity:0.35;}
	.st2{fill:#FFFFFF;}
</style>
<path class="st0" d="M-147.3,96.3c2,0.2,2.6,2,2.6,2s0,0,1.4,4.1s3.2,8,6.7,10.4s9.9,2.3,14.9,2.2c5-0.2,9.9-0.9,13.8-2.4
	c3.9-1.5,4.6-5.5,4.6-5.5s1.9-7.4,2-8s1.8-2.6,1.8-2.6v-7.3c0,0-13.3-1.5-23-1.9c-9.5-0.3-17.2,2.1-20.6,3c-3.8,1.1-5,1-7.8,0.9
	c-4.8-0.5-12.6-4.2-24.7-3.9c-9.6,0.4-22.9,1.9-22.9,1.9v7.2c0,0,1.7,2,1.8,2.6c0.1,0.6,2,8,2,8s0.7,4,4.6,5.5
	c3.9,1.5,8.8,2.3,13.8,2.4c12.5,0.4,17.4-0.7,21.6-12.6c1.4-4.1,1.4-4.1,1.4-4.1s0.7-1.8,2.6-2C-149.2,96.1-148.8,96.1-147.3,96.3z
	 M-190.6,90.9c2-1.2,9.2-1.9,16.6-1.8s14,2,14,2c4.4,1.3,5.2,4.6,3,11.7s-6.3,8.6-6.3,8.6c-6.5,3-21.1,1.3-24.5-0.1
	c-3.4-1.4-4.6-2.6-5.4-9.8C-194.1,94.4-192.8,92.2-190.6,90.9z M-104.6,101.5c-0.8,7.1-2,8.4-5.4,9.8s-18.1,3.1-24.5,0.1
	c0,0-4.1-1.5-6.3-8.6s-1.5-10.4,3-11.7c0,0,6.6-1.9,14-2c7.4-0.1,14.6,0.6,16.6,1.8C-105.2,92.2-103.9,94.4-104.6,101.5z"/>
<g class="st1">
	<path class="st0" d="M-111.6,100.1c-1.2-3.9-6.3-7.7-6.3-7.7c8.3,3.8,9.1,9.8,9.1,9.8S-110.4,104-111.6,100.1z"/>
	<path class="st0" d="M-133.4,102c1.6-7.6,8.3-10.3,8.3-10.3c-9.7,2.1-10.9,13.2-10.9,13.2L-133.4,102z"/>
	<ellipse class="st0" cx="-122.4" cy="100.7" rx="5.8" ry="5.8"/>
	<ellipse class="st0" cx="-122.4" cy="100.4" rx="5.3" ry="5.1"/>
	<ellipse class="st0" cx="-122.4" cy="100.2" rx="2.8" ry="2.8"/>
	<path class="st2" d="M-124.9,97.1c-1.1,0.7-1.5,2-1,2.8c0.6,0.7,1.9,0.8,3,0c1.1-0.7,1.5-2,1-2.8
		C-122.5,96.3-123.8,96.3-124.9,97.1z"/>
	<path class="st2" d="M-120.6,101.6c-0.5,0.4-0.7,0.9-0.5,1.3c0.3,0.3,0.9,0.3,1.4,0c0.5-0.4,0.7-0.9,0.5-1.3
		C-119.5,101.3-120.1,101.2-120.6,101.6z"/>
	<path class="st0" d="M-132.2,99.5c-1.3,1.3-2.4,2.7-3.2,3.7c-1.2,1.7-0.5,1.8,1.1,1.8c0.9,0,2.2,0.5,3.7,1
		C-134.1,104.2-133.3,101.3-132.2,99.5z"/>
	<path class="st0" d="M-112.4,98.6c1.3,1.2-0.5,6.7-1.9,7.2c2.8-0.9,5.6-3.1,5.5-3.6C-108.9,101.8-110.3,100.2-112.4,98.6z"/>
	<path class="st0" d="M-123.2,94.2c2.4,0,4-0.4,8.2,2c4.1,2.5,6.1,6,6.1,6c-4.8-4-8.8-6.1-12.2-6.4c-3.4-0.4-3.9,0.2-6.7,1.1
		s-7.2,5.6-8.2,7.4C-133.9,98.5-128.4,94.1-123.2,94.2z"/>
</g>
<g>
	<path class="st0" d="M-186.2,100.1c1.2-3.9,6.3-7.7,6.3-7.7c-8.3,3.8-9.1,9.8-9.1,9.8S-187.4,104-186.2,100.1z"/>
	<path class="st0" d="M-164.4,102c-1.6-7.6-8.3-10.3-8.3-10.3c9.7,2.1,10.9,13.2,10.9,13.2L-164.4,102z"/>
	<ellipse class="st0" cx="-175.5" cy="100.7" rx="5.8" ry="5.8"/>
	<ellipse class="st0" cx="-175.5" cy="100.4" rx="5.3" ry="5.1"/>
	<ellipse class="st0" cx="-175.5" cy="100.2" rx="2.8" ry="2.8"/>
	<path class="st2" d="M-172.9,97.1c1.1,0.7,1.5,2,1,2.8c-0.6,0.7-1.9,0.8-3,0c-1.1-0.7-1.5-2-1-2.8C-175.3,96.3-174,96.3-172.9,97.1
		z"/>
	<path class="st2" d="M-177.2,101.6c0.5,0.4,0.7,0.9,0.5,1.3c-0.3,0.3-0.9,0.3-1.4,0c-0.5-0.4-0.7-0.9-0.5-1.3
		C-178.4,101.3-177.8,101.2-177.2,101.6z"/>
	<path class="st0" d="M-165.6,99.5c1.3,1.3,2.4,2.7,3.2,3.7c1.2,1.7,0.5,1.8-1.1,1.8c-0.9,0-2.2,0.5-3.7,1
		C-163.7,104.2-164.5,101.3-165.6,99.5z"/>
	<path class="st0" d="M-185.4,98.6c-1.3,1.2,0.5,6.7,1.9,7.2c-2.8-0.9-5.6-3.1-5.5-3.6C-188.9,101.8-187.5,100.2-185.4,98.6z"/>
	<path class="st0" d="M-174.7,94.2c-2.4,0-4-0.4-8.2,2c-4.1,2.5-6.1,6-6.1,6c4.8-4,8.8-6.1,12.2-6.4c3.4-0.4,3.9,0.2,6.7,1.1
		s7.2,5.6,8.2,7.4C-163.9,98.5-169.4,94.1-174.7,94.2z"/>
</g>
</svg>
