<?xml version="1.0" encoding="utf-8"?>
<!-- Generator: Adobe Illustrator 19.2.0, SVG Export Plug-In . SVG Version: 6.00 Build 0)  -->
<svg version="1.1" id="Layer_1" xmlns="http://www.w3.org/2000/svg" xmlns:xlink="http://www.w3.org/1999/xlink" x="0px" y="0px"
	 viewBox="0 0 100 30" style="enable-background:new 0 0 100 30;" xml:space="preserve">
<style type="text/css">
	.st0{fill:#211615;}
</style>
<g>
	<path class="st0" d="M99,4c-0.1,0-13.3-1.5-22.7-1.8C67.9,1.8,61.6,3.5,57,4.8c-2,0.5-3.8,1-5.1,1.2l-0.4,0C49,6,47.8,6,44.3,5.1
		l-0.9-0.3c-3.8-1-10.9-3-19.6-2.7C14.3,2.5,1.2,4,1,4L0.5,4v8l0.1,0.2c0.7,0.8,1.5,2,1.6,2.2c0,0.2,0.2,0.9,0.5,1.9h0
		c0.1,0.7,1.6,1.2,3.4,1.2c0.3,0,0.6,0,0.9,0c0-0.3-0.1-0.6-0.1-0.9C6.1,9.3,7.6,7.7,9,6.8c1.8-1.1,8.5-1.8,16.1-1.7
		C32.3,5.2,38.7,7,38.8,7c1.6,0.5,2.6,1.2,3.2,2.2c0.9,1.6,0.7,4.3-0.5,8.4c0.2,0,0.4,0,0.6,0c1.8,0,3.3-0.5,3.4-1.2l0.9-2.7
		c0,0,0.5-1.4,2-1.6c1.4-0.2,1.8-0.2,3.3,0c1.5,0.2,2,1.6,2,1.6l0.9,2.7h0c0.1,0.7,1.6,1.2,3.4,1.2c0.2,0,0.4,0,0.5,0
		c-1.2-4.1-1.4-6.7-0.5-8.4c0.6-1,1.6-1.7,3.2-2.2c0.1,0,6.5-1.8,13.7-1.9c0.5,0,1.1,0,1.6,0c6.9,0,12.8,0.7,14.5,1.7
		c1.5,0.9,3,2.5,2.1,9.9c0,0.3-0.1,0.6-0.1,0.9c0.3,0,0.6,0,0.9,0c1.8,0,3.3-0.6,3.4-1.2h0c0.3-1,0.4-1.7,0.5-1.9
		c0.1-0.3,0.9-1.4,1.6-2.3l0.1-0.2V4L99,4z"/>
	<g>
		<path class="st0" d="M74.5,27.9c-3.9,0-7.7-0.4-10.2-1.6c-0.3-0.1-4-1.8-6-8.3c-1.3-4.3-1.5-7.1-0.6-8.9c0.6-1.1,1.7-1.9,3.4-2.4
			c0.1,0,6.5-1.8,13.8-1.9c0.5,0,1,0,1.6,0c7.1,0,13,0.7,14.6,1.7c1.6,1,3.2,2.6,2.3,10.2c-0.8,7.1-2.1,8.2-5.1,9.5
			C86.5,26.9,80.4,27.9,74.5,27.9z M76.5,5.4c-0.6,0-1.1,0-1.6,0c-7.1,0.1-13.5,1.9-13.6,1.9c-1.5,0.4-2.4,1.1-3,2l0,0
			c-0.9,1.6-0.7,4.2,0.6,8.4c2,6.4,5.6,7.9,5.6,7.9l0,0c6.1,2.9,20.5,1.1,23.4-0.1c2.9-1.2,3.9-2.1,4.7-8.9c0.8-7.2-0.6-8.7-2-9.5
			C89.2,6.1,83.3,5.4,76.5,5.4z"/>
	</g>
	<g>
		<path class="st0" d="M25.5,27.9c-5.9,0-11.9-1-13.8-1.7c-3.1-1.3-4.3-2.4-5.1-9.5C5.7,9.1,7.3,7.4,8.9,6.5
			c1.8-1.1,8.7-1.8,16.2-1.7c7.2,0.1,13.7,1.9,13.8,1.9c1.7,0.5,2.8,1.2,3.4,2.4c0.9,1.8,0.8,4.6-0.6,8.9l0,0
			c-2,6.6-5.8,8.2-6.1,8.3C33.2,27.5,29.3,27.9,25.5,27.9z M23.5,5.4c-6.7,0-12.8,0.7-14.3,1.6c-1.4,0.8-2.8,2.3-2,9.5
			C8,23.4,9,24.4,12,25.5c3,1.2,17.3,3,23.4,0.1l0,0c0.2-0.1,3.7-1.5,5.7-7.9l0,0c1.3-4.1,1.5-6.8,0.6-8.4c-0.5-1-1.5-1.6-3-2
			c-0.1,0-6.5-1.8-13.6-1.9C24.6,5.4,24.1,5.4,23.5,5.4z"/>
	</g>
</g>
</svg>
