<?xml version="1.0" encoding="utf-8"?>
<!-- Generator: Adobe Illustrator 19.2.0, SVG Export Plug-In . SVG Version: 6.00 Build 0)  -->
<svg version="1.1" id="Layer_1" xmlns="http://www.w3.org/2000/svg" xmlns:xlink="http://www.w3.org/1999/xlink" x="0px" y="0px"
	 viewBox="0 0 100 30" style="enable-background:new 0 0 100 30;" xml:space="preserve">
<style type="text/css">
	.st0{fill:#211615;}
</style>
<path class="st0" d="M51.7,10c1.9,0.2,2.6,2,2.6,2s0,0,1.4,4.1c4.2,11.9,9.1,13,21.6,12.6c5-0.1,9.9-0.9,13.8-2.4
	c3.9-1.5,4.6-5.5,4.6-5.5s1.9-7.4,2-8c0.1-0.6,1.8-2.6,1.8-2.6V3c0,0-13.3-1.5-22.9-1.9C64.5,0.8,56.7,4.5,51.9,5
	c-2.8,0.1-4,0.2-7.8-0.9c-3.4-0.9-11.1-3.3-20.6-3C13.8,1.5,0.5,3,0.5,3l0,7.3c0,0,1.7,2,1.8,2.6c0.1,0.6,2,8,2,8s0.7,4,4.6,5.5
	c3.9,1.5,8.8,2.2,13.8,2.4c5,0.1,11.4,0.2,14.9-2.2c3.5-2.4,5.3-6.3,6.7-10.4s1.4-4.1,1.4-4.1s0.6-1.8,2.6-2
	C49.8,9.9,50.2,9.9,51.7,10z M94.2,15.3c-0.8,7.2-2,8.4-5.4,9.8c-3.4,1.4-18,3.1-24.5,0.1c0,0-4.1-1.5-6.3-8.6
	c-2.2-7.1-1.4-10.4,3-11.7c0,0,6.6-1.9,14-2c7.4-0.1,14.6,0.6,16.6,1.8C93.8,6,95.1,8.2,94.2,15.3z M8.2,4.7c2-1.2,9.2-1.9,16.6-1.8
	c7.4,0.1,14,2,14,2c4.5,1.3,5.2,4.6,3,11.7c-2.2,7.1-6.3,8.6-6.3,8.6c-6.4,3-21.1,1.3-24.5-0.1c-3.4-1.4-4.6-2.7-5.4-9.8
	C4.9,8.2,6.2,6,8.2,4.7z"/>
</svg>
