<?xml version="1.0" encoding="utf-8"?>
<!-- Generator: Adobe Illustrator 19.0.0, SVG Export Plug-In . SVG Version: 6.00 Build 0)  -->
<svg version="1.1" id="Layer_1" xmlns="http://www.w3.org/2000/svg" xmlns:xlink="http://www.w3.org/1999/xlink" x="0px" y="0px"
	 viewBox="-199 69.3 116.5 47" style="enable-background:new -199 69.3 116.5 47;" xml:space="preserve">
<style type="text/css">
	.st0{fill:#201600;}
	.st1{fill:#FFFFFF;}
</style>
<path class="st0" d="M-147.3,96.1c2,0.2,2.6,2,2.6,2s0,0,1.4,4.1c1.4,4.1,3.2,8,6.7,10.4c3.5,2.4,9.9,2.3,14.9,2.2
	c5-0.2,9.9-0.9,13.8-2.4s4.6-5.5,4.6-5.5s1.9-7.4,2-8c0.1-0.6,1.8-2.6,1.8-2.6V89c0,0-13.3-1.5-23-1.9c-9.5-0.3-17.2,2.1-20.6,3
	c-3.8,1.1-5,1-7.8,0.9c-4.8-0.5-12.6-4.2-24.7-3.9c-9.6,0.4-22.9,1.9-22.9,1.9v7.2c0,0,1.7,2,1.8,2.6c0.1,0.6,2,8,2,8s0.7,4,4.6,5.5
	c3.9,1.5,8.8,2.3,13.8,2.4c12.5,0.4,17.4-0.7,21.6-12.6c1.4-4.1,1.4-4.1,1.4-4.1s0.7-1.8,2.6-2C-149.2,95.9-148.8,95.9-147.3,96.1z
	 M-190.6,90.7c2-1.2,9.2-1.9,16.6-1.8c7.4,0.1,14,2,14,2c4.4,1.3,5.2,4.6,3,11.7c-2.2,7.1-6.3,8.6-6.3,8.6c-6.5,3-21.1,1.3-24.5-0.1
	c-3.4-1.4-4.6-2.6-5.4-9.8C-194.1,94.2-192.8,92-190.6,90.7z M-104.6,101.3c-0.8,7.1-2,8.4-5.4,9.8c-3.4,1.4-18.1,3.1-24.5,0.1
	c0,0-4.1-1.5-6.3-8.6c-2.2-7.1-1.5-10.4,3-11.7c0,0,6.6-1.9,14-2c7.4-0.1,14.6,0.6,16.6,1.8C-105.2,92-103.9,94.2-104.6,101.3z"/>
<path class="st1" d="M-190.6,90.7c2-1.2,9.2-1.9,16.6-1.8c7.4,0.1,14,2,14,2c4.4,1.3,5.2,4.6,3,11.7c-2.2,7.1-6.3,8.6-6.3,8.6
	c-6.5,3-21.1,1.3-24.5-0.1c-3.4-1.4-4.6-2.6-5.4-9.8C-194.1,94.2-192.8,92-190.6,90.7z"/>
<path class="st1" d="M-104.6,101.3c-0.8,7.1-2,8.4-5.4,9.8c-3.4,1.4-18.1,3.1-24.5,0.1c0,0-4.1-1.5-6.3-8.6
	c-2.2-7.1-1.5-10.4,3-11.7c0,0,6.6-1.9,14-2c7.4-0.1,14.6,0.6,16.6,1.8C-105.2,92-103.9,94.2-104.6,101.3z"/>
<image style="overflow:visible;" width="35" height="22" xlink:href="56D5DBDF.png"  transform="matrix(1 0 0 1 -127 77)">
</image>
<image style="overflow:visible;" width="35" height="22" xlink:href="56D5DBDD.png"  transform="matrix(1 0 0 1 -117 69)">
</image>
</svg>
