<?xml version="1.0" encoding="utf-8"?>
<!-- Generator: Adobe Illustrator 19.2.0, SVG Export Plug-In . SVG Version: 6.00 Build 0)  -->
<svg version="1.1" id="Layer_1" xmlns="http://www.w3.org/2000/svg" xmlns:xlink="http://www.w3.org/1999/xlink" x="0px" y="0px"
	 viewBox="0 0 100 30" style="enable-background:new 0 0 100 30;" xml:space="preserve">
<style type="text/css">
	.st0{fill:#211615;}
</style>
<path class="st0" d="M99.5,7.5l-5.3-0.8c-0.5-0.9-1.1-1.4-1.8-1.8c-1.7-1.1-7.8-1.8-15.1-1.8c-0.6,0-1.1,0-1.7,0
	c-7.5,0.1-14.1,2-14.2,2c-1.6,0.5-2.7,1.2-3.4,2.2l-3.9,0.8c-2.7,0.5-5.6,0.5-8.3,0l-4-0.8c-0.6-1.1-1.7-1.8-3.4-2.2
	c-0.1,0-6.7-1.9-14.2-2C16.5,3,9.4,3.7,7.6,4.9C6.9,5.2,6.3,5.8,5.8,6.7L0.5,7.5v3.9L5,13c0,0.7,0.1,1.5,0.2,2.4
	c0.8,7.3,2.1,8.5,5.3,9.8c1.9,0.8,8.1,1.8,14.2,1.8c4,0,7.9-0.4,10.5-1.6c0.3-0.1,4.2-1.8,6.2-8.6c0.3-0.9,0.5-1.7,0.7-2.5
	c1.2-1,3.8-2.5,7.9-2.5c4.1,0,6.6,1.5,7.8,2.4c0.2,0.8,0.4,1.7,0.7,2.6c2.1,6.7,5.9,8.4,6.2,8.6c2.6,1.2,6.5,1.7,10.6,1.7
	c6.1,0,12.3-1,14.2-1.8c3.2-1.3,4.5-2.5,5.3-9.8c0.1-0.9,0.2-1.6,0.2-2.4l4.5-1.6V7.5z M34.9,24.6L34.9,24.6
	c-6.3,3-21.1,1.1-24.1-0.1c-3-1.2-4.1-2.2-4.9-9.2c-0.8-7.4,0.6-9,2-9.8c1.6-1,7.8-1.7,14.8-1.7c0.5,0,1.1,0,1.6,0
	c7.3,0.1,13.9,1.9,14,2c1.5,0.4,2.5,1.1,3.1,2.1c0.9,1.6,0.7,4.4-0.6,8.6C38.7,23.1,35.1,24.6,34.9,24.6z M94.1,15.3
	c-0.8,7-1.8,8-4.9,9.2c-3.1,1.3-17.8,3.1-24.2,0.1l0,0c0,0-3.8-1.5-5.8-8.1c-1.3-4.3-1.5-7-0.6-8.6c0.5-1,1.5-1.7,3-2.1
	c0.1,0,6.7-1.9,14-2c0.5,0,1.1,0,1.6,0c7.1,0,13.1,0.7,14.7,1.7C93.5,6.3,94.9,7.9,94.1,15.3z"/>
</svg>
